<?xml version="1.0" encoding="UTF-8"?>
<svg xmlns="http://www.w3.org/2000/svg" width="97" height="18">
  <linearGradient id="a" x2="0" y2="100%">
    <stop offset="0" stop-color="#fff" stop-opacity=".7" />
    <stop offset=".1" stop-color="#aaa" stop-opacity=".1" />
    <stop offset=".9" stop-opacity=".3" />
    <stop offset="1" stop-opacity=".5" />
  </linearGradient>
  <rect rx="4" width="97" height="18" fill="#555" />
  <rect rx="4" x="30" width="67" height="18" fill="#007ec6" />
  <path fill="#007ec6" d="M30 0h4v18h-4z" />
  <rect rx="4" width="97" height="18" fill="url(#a)" />
  <g fill="#fff" text-anchor="middle" font-family="DejaVu Sans,Verdana,Geneva,sans-serif" font-size="11">
    <g  transform="matrix(0.6,0,0,0.6,-17,2)">
      <path fill-rule="evenodd" clip-rule="evenodd" fill="#52ADE1" d="M62.869,6.207c3.233,0.249,5.779,2.957,5.779,6.249
        c0,4.281-3.346,6.998-7.518,6.998h-0.661h-0.568H46.818H46.37c-4.299-0.069-7.774-3.577-7.774-7.892
        c0-4.142,3.199-7.539,7.259-7.865C47.128,1.453,49.527,0,52.194,0c2.642,0,5.015,1.417,6.298,3.627
        C60.263,3.834,61.854,4.78,62.869,6.207L62.869,6.207z M59.273,17.279h1.032h0.825c3.673,0,5.351-2.398,5.351-4.823
        c0-2.26-1.84-4.092-4.104-4.092c-0.257,0-0.516,0.026-0.764,0.069c-0.576-1.564-2.081-2.673-3.846-2.673
        c-0.23,0-0.463,0.018-0.678,0.051c-0.629-2.106-2.582-3.635-4.896-3.635c-2.338,0-4.318,1.571-4.92,3.721
        c-0.249-0.034-0.515-0.052-0.783-0.052c-3.157,0-5.72,2.561-5.72,5.716c0,3.214,2.598,5.717,5.771,5.717H58.18H59.273z"></path>
      <path fill="#ffffff" d="M72.262,16.264c-0.01,0.594-0.079,1.083-0.232,1.479c-0.146,0.394-0.335,0.713-0.577,0.944
        c-0.231,0.242-0.491,0.423-0.757,0.542c-0.275,0.121-0.541,0.198-0.792,0.242c-0.481,0.068-0.662,0.016-1.092,0.016v-0.946
        c0.249,0,0.034,0,0.283-0.06c0.174-0.035,0.354-0.12,0.525-0.25c0.172-0.129,0.317-0.326,0.439-0.593
        c0.12-0.258,0.189-0.611,0.189-1.058v-2.57c0-0.379,0.059-0.705,0.156-0.981c0.103-0.274,0.223-0.498,0.377-0.678
        c0.146-0.181,0.294-0.317,0.447-0.421c0.147-0.104,0.266-0.181,0.37-0.223c0.104-0.044,0.156-0.062,0.156-0.062v-0.034
        c0,0-0.052-0.025-0.156-0.068c-0.104-0.043-0.223-0.12-0.37-0.232c-0.153-0.112-0.3-0.258-0.447-0.439
        c-0.154-0.181-0.274-0.403-0.377-0.67c-0.098-0.267-0.156-0.584-0.156-0.954V6.903c0-0.447-0.069-0.799-0.189-1.058
        c-0.122-0.267-0.267-0.463-0.439-0.593c-0.171-0.129-0.352-0.214-0.525-0.25c-0.257-0.06-0.025-0.051-0.283-0.051V3.999
        c0.01,0,0.043,0,0.121-0.01c0.076,0,0.18-0.008,0.309-0.008c0.181,0,0.405,0.018,0.662,0.051c0.251,0.042,0.516,0.12,0.792,0.241
        c0.267,0.12,0.526,0.3,0.757,0.541c0.242,0.232,0.431,0.55,0.577,0.938c0.154,0.396,0.223,0.885,0.232,1.468v1.566
        c0,0.387,0.06,0.705,0.162,0.955c0.104,0.257,0.233,0.456,0.396,0.609c0.156,0.147,0.311,0.258,0.466,0.326
        c0.155,0.078,0.292,0.122,0.395,0.147c0.189,0.035,0.396,0.069,0.396,0.335v0.98c0,0.265-0.207,0.3-0.396,0.343
        c-0.103,0.019-0.24,0.062-0.395,0.14c-0.155,0.068-0.31,0.179-0.466,0.326c-0.162,0.146-0.292,0.344-0.396,0.592
        c-0.103,0.249-0.162,0.559-0.162,0.938V16.264z"></path>
      <path fill="#ffffff" d="M34.991,16.427c0,0.594,0.078,1.083,0.224,1.479c0.147,0.395,0.344,0.704,0.576,0.944
        c0.241,0.242,0.499,0.423,0.766,0.542c0.276,0.121,0.535,0.198,0.792,0.234c0.473,0.076,0.653,0.025,1.083,0.025v-0.954
        c-0.25,0-0.034,0-0.274-0.052c-0.181-0.035-0.352-0.121-0.525-0.249c-0.18-0.13-0.327-0.327-0.447-0.593
        c-0.12-0.259-0.181-0.611-0.181-1.058v-2.57c0-0.378-0.059-0.714-0.164-0.98c-0.094-0.275-0.223-0.499-0.368-0.679
        c-0.148-0.181-0.302-0.325-0.447-0.42c-0.147-0.103-0.277-0.181-0.371-0.224c-0.104-0.043-0.155-0.061-0.164-0.061v-0.034
        c0.009,0,0.061-0.026,0.164-0.068c0.094-0.052,0.224-0.129,0.371-0.231c0.145-0.113,0.299-0.26,0.447-0.439
        c0.145-0.181,0.274-0.405,0.368-0.67c0.105-0.276,0.164-0.594,0.164-0.956V7.066c0-0.446,0.061-0.799,0.181-1.067
        c0.121-0.256,0.267-0.454,0.447-0.583c0.173-0.129,0.345-0.215,0.525-0.25c0.258-0.059,0.017-0.059,0.274-0.059V4.162
        c0,0-0.034,0-0.118-0.01c-0.071-0.008-0.175-0.008-0.312-0.008c-0.181,0-0.395,0.018-0.653,0.051
        c-0.257,0.042-0.516,0.12-0.792,0.241c-0.267,0.121-0.525,0.3-0.766,0.533c-0.232,0.241-0.429,0.559-0.576,0.945
        c-0.146,0.396-0.224,0.887-0.224,1.47v1.564c-0.009,0.379-0.06,0.707-0.164,0.955c-0.112,0.257-0.242,0.456-0.395,0.609
        c-0.155,0.146-0.31,0.26-0.465,0.329c-0.163,0.076-0.292,0.119-0.396,0.144c-0.19,0.035-0.405,0.069-0.405,0.335v0.98
        c0,0.268,0.214,0.3,0.405,0.335c0.104,0.026,0.232,0.069,0.396,0.147c0.155,0.068,0.31,0.179,0.465,0.326
        c0.153,0.146,0.283,0.344,0.395,0.592c0.104,0.249,0.155,0.559,0.164,0.938V16.427z"></path>
    </g>
    <text x="62.5" y="14" fill="#010101" fill-opacity=".3">contribute</text>
    <text x="62.5" y="13">contribute</text>
  </g>
</svg>
